<?xml version="1.0" encoding="utf-8"?>
<!-- Generator: Adobe Illustrator 18.1.1, SVG Export Plug-In . SVG Version: 6.00 Build 0)  -->
<!DOCTYPE svg PUBLIC "-//W3C//DTD SVG 1.1//EN" "http://www.w3.org/Graphics/SVG/1.1/DTD/svg11.dtd">
<svg version="1.1" id="Layer_1" xmlns="http://www.w3.org/2000/svg" xmlns:xlink="http://www.w3.org/1999/xlink" x="0px" y="0px"
	 viewBox="-495 369 32 32" enable-background="new -495 369 32 32" xml:space="preserve">
<circle fill="none" stroke="#89C1B9" stroke-width="2" stroke-miterlimit="10" cx="-479" cy="385" r="15"/>
<g id="icomoon-ignore">
</g>
<path fill="#89C1B9" d="M-447.3,413.5c-1.5,0-5-1.9-7.9-5.8c-2.8-3.7-4.1-6.4-4.1-8.2c0-1.4,1-2.1,1.5-2.5l0.1-0.1
	c0.6-0.4,1.5-0.6,1.8-0.6c0.6,0,0.9,0.4,1,0.7c0.1,0.3,1.2,2.6,1.3,2.9c0.2,0.5,0.1,1.1-0.4,1.5l-0.1,0.1c-0.3,0.2-0.7,0.5-0.8,0.9
	c0,0.2,0,0.4,0.2,0.6c0.8,1.1,3.6,4.5,4,5c0.4,0.4,0.9,0.4,1.2,0.1c0.3-0.3,0.5-0.5,0.5-0.5l0,0c0,0,0.3-0.2,0.7-0.2
	c0.3,0,0.6,0.1,1,0.3c0.8,0.6,2.7,1.8,2.7,1.8l0,0c0.2,0.2,0.6,0.8,0.2,1.6C-444.6,411.8-445.9,413.5-447.3,413.5L-447.3,413.5z
	 M-455.8,396.9c-0.3,0-1,0.1-1.5,0.4l-0.1,0.1c-0.5,0.3-1.2,0.9-1.2,1.9c0,1.7,1.3,4.2,4,7.8c2.9,3.9,6.3,5.6,7.4,5.6
	c1,0,2.1-1.4,2.5-2.1c0.2-0.4,0-0.7,0-0.8c-0.2-0.1-1.9-1.3-2.7-1.8c-0.2-0.1-0.4-0.2-0.6-0.2c-0.2,0-0.3,0.1-0.3,0.1
	c-0.1,0.1-0.2,0.2-0.5,0.5c-0.6,0.5-1.4,0.4-2-0.2c-0.6-0.5-3.3-4-4.1-5c-0.3-0.4-0.4-0.7-0.3-1.1c0.1-0.7,0.7-1.1,1.1-1.3l0.1-0.1
	c0.3-0.2,0.2-0.6,0.2-0.7c-0.1-0.2-1.2-2.6-1.3-2.9C-455.5,397-455.6,396.9-455.8,396.9L-455.8,396.9z"/>
<g>
	<path fill="#89C1B9" d="M-474.1,388.9c-0.2-0.2-0.5-0.2-0.7-0.2c-0.2,0-0.3,0.1-0.4,0.1c-0.1,0.1-0.3,0.3-0.6,0.6
		c-0.7,0.6-1.7,0.5-2.4-0.2c-0.6-0.6-3.9-4.6-4.8-5.9c-0.3-0.4-0.4-0.9-0.4-1.3c0.1-0.8,0.9-1.3,1.3-1.6l0.1-0.1
		c0.4-0.3,0.3-0.7,0.2-0.9c-0.1-0.3-1.4-3-1.5-3.3c-0.1-0.3-0.2-0.4-0.5-0.4l0,0c-0.3,0-1.2,0.1-1.7,0.5l-0.2,0.1
		c-0.6,0.4-1.4,1-1.4,2.3c0,1.9,1.5,4.9,4.6,9.1c3.4,4.6,7.3,6.5,8.6,6.5c1.1,0,2.4-1.6,2.9-2.4c0.3-0.5,0-0.8,0-0.9
		C-471.3,390.8-473.2,389.5-474.1,388.9z"/>
	<path fill="#89C1B9" d="M-470.6,390.3c0,0-2.2-1.4-3.1-2.1c-0.4-0.2-0.7-0.4-1.1-0.4c-0.5,0-0.8,0.2-0.8,0.3l0,0
		c0,0-0.2,0.2-0.6,0.5c-0.4,0.3-0.9,0.3-1.4-0.2c-0.6-0.5-3.7-4.4-4.7-5.8c-0.2-0.3-0.3-0.5-0.2-0.7c0.1-0.5,0.6-0.9,0.9-1.1
		l0.1-0.1c0.6-0.4,0.7-1.2,0.5-1.7c-0.1-0.3-1.4-3.1-1.6-3.4c-0.2-0.4-0.5-0.8-1.2-0.8c-0.4,0-1.5,0.2-2.1,0.6l-0.2,0.1
		c-0.6,0.4-1.8,1.2-1.8,2.9c0,2.1,1.6,5.2,4.8,9.5c3.4,4.6,7.5,6.8,9.2,6.8l0,0c1.5,0,3-1.9,3.5-2.8
		C-469.9,391.3-470.3,390.6-470.6,390.3L-470.6,390.3z M-471,391.8c-0.4,0.8-1.7,2.4-2.9,2.4c-1.3,0-5.2-1.9-8.6-6.5
		c-3.1-4.2-4.6-7.2-4.6-9.1c0-1.3,0.9-1.9,1.4-2.3l0.2-0.1c0.5-0.4,1.4-0.5,1.7-0.5l0,0c0.3,0,0.4,0.1,0.5,0.4
		c0.2,0.3,1.4,3,1.5,3.3c0.1,0.2,0.1,0.6-0.2,0.9l-0.1,0.1c-0.4,0.3-1.1,0.8-1.3,1.6c-0.1,0.4,0.1,0.9,0.4,1.3
		c0.9,1.2,4.1,5.3,4.8,5.9c0.7,0.7,1.7,0.7,2.4,0.2c0.4-0.3,0.6-0.5,0.6-0.6c0,0,0.2-0.1,0.4-0.1c0.2,0,0.4,0.1,0.7,0.2
		c0.9,0.6,2.8,1.9,3.1,2.1C-471,391-470.7,391.3-471,391.8z"/>
</g>
</svg>
