<?xml version="1.0" encoding="utf-8"?>
<!-- Generator: Adobe Illustrator 18.1.1, SVG Export Plug-In . SVG Version: 6.00 Build 0)  -->
<!DOCTYPE svg PUBLIC "-//W3C//DTD SVG 1.1//EN" "http://www.w3.org/Graphics/SVG/1.1/DTD/svg11.dtd">
<svg version="1.1" id="Layer_1" xmlns="http://www.w3.org/2000/svg" xmlns:xlink="http://www.w3.org/1999/xlink" x="0px" y="0px"
	 viewBox="-495 369 32 32" enable-background="new -495 369 32 32" xml:space="preserve">
<g id="icomoon-ignore">
</g>
<path fill="#FFFFFF" d="M-471.6,399.4c-2.4,0-8.3-3.1-13.3-9.8c-4.6-6.2-6.9-10.8-6.9-13.8c0-2.4,1.6-3.5,2.5-4.1l0.2-0.2
	c1-0.7,2.5-0.9,3.1-0.9c1,0,1.5,0.6,1.7,1.1c0.2,0.4,2.1,4.4,2.2,4.9c0.3,0.8,0.2,1.9-0.7,2.5l-0.2,0.1c-0.4,0.3-1.3,0.9-1.4,1.6
	c-0.1,0.3,0.1,0.7,0.3,1.1c1.4,1.9,6,7.6,6.8,8.3c0.6,0.6,1.5,0.7,2,0.2c0.6-0.5,0.8-0.8,0.8-0.8l0.1-0.1c0,0,0.5-0.4,1.2-0.4
	c0.5,0,1.1,0.2,1.6,0.5c1.4,0.9,4.5,3,4.5,3l0,0c0.4,0.3,1,1.3,0.3,2.6C-467.2,396.7-469.4,399.4-471.6,399.4L-471.6,399.4z
	 M-486,371.7c-0.5,0-1.7,0.2-2.5,0.7l-0.2,0.2c-0.8,0.6-2.1,1.4-2.1,3.3c0,2.8,2.2,7.1,6.7,13.1c4.9,6.6,10.5,9.4,12.4,9.4
	c1.6,0,3.5-2.3,4.1-3.5c0.4-0.7,0.1-1.2,0-1.3c-0.4-0.2-3.2-2.1-4.5-3c-0.4-0.2-0.7-0.4-1-0.4c-0.3,0-0.5,0.1-0.5,0.1
	c-0.1,0.1-0.4,0.4-0.9,0.8c-1,0.8-2.4,0.7-3.4-0.3c-0.9-0.9-5.6-6.7-6.9-8.5c-0.5-0.6-0.6-1.3-0.5-1.9c0.2-1.1,1.2-1.9,1.8-2.3
	l0.1-0.1c0.5-0.4,0.4-1,0.3-1.2c-0.2-0.4-2-4.3-2.2-4.8C-485.4,371.8-485.5,371.7-486,371.7L-486,371.7z"/>
</svg>
